<?xml version="1.0" standalone="no"?>
<!DOCTYPE svg PUBLIC "-//W3C//DTD SVG 20010904//EN"
 "http://www.w3.org/TR/2001/REC-SVG-20010904/DTD/svg10.dtd">
<svg version="1.0" xmlns="http://www.w3.org/2000/svg"
 width="512.000000pt" height="512.000000pt" viewBox="0 0 512.000000 512.000000"
 preserveAspectRatio="xMidYMid meet">
<metadata>
Created by potrace 1.11, written by Peter Selinger 2001-2013
</metadata>
<g transform="translate(0.000000,512.000000) scale(0.100000,-0.100000)"
fill="#000000" stroke="none">
<path d="M2310 4959 c-289 -87 -617 -186 -730 -220 -113 -33 -284 -85 -380
-114 -96 -29 -299 -90 -450 -135 -151 -45 -291 -90 -310 -100 -50 -26 -116
-97 -140 -153 -28 -63 -39 -213 -40 -512 0 -1093 194 -2101 526 -2722 191
-357 389 -571 652 -702 313 -157 718 -193 1060 -95 322 92 554 229 1337 788
261 186 639 468 805 600 321 256 374 327 324 431 -31 66 -46 70 -264 70 -187
0 -198 1 -280 28 -245 82 -460 265 -651 554 -257 390 -500 1079 -693 1963 -25
113 -52 247 -61 299 -23 131 -65 183 -147 180 -18 -1 -269 -72 -558 -160z
m558 -2 c6 -7 33 -125 61 -262 199 -989 486 -1773 808 -2203 82 -109 264 -290
353 -349 236 -158 477 -218 718 -176 72 12 29 -38 -179 -208 -212 -172 -222
-180 -554 -428 -621 -464 -1091 -766 -1340 -859 -57 -21 -220 -61 -313 -76
-369 -60 -690 -5 -936 158 -182 121 -338 319 -512 651 -345 657 -556 1651
-558 2630 l-1 310 28 52 c36 69 75 93 222 136 66 20 242 72 390 116 149 44
437 129 640 190 204 60 532 157 730 216 198 58 365 108 370 110 23 8 63 4 73
-8z"/>
<path d="M2632 3942 c-100 -51 -230 -166 -383 -338 -89 -99 -106 -129 -108
-185 l-1 -54 40 45 c22 25 59 80 81 123 74 139 295 347 368 347 45 0 74 -40
79 -108 5 -76 -10 -117 -41 -107 -12 3 -43 9 -68 12 -78 9 -129 -29 -228 -172
-19 -28 -37 -52 -40 -55 -11 -10 -71 -98 -71 -105 0 -3 -12 -23 -27 -43 -15
-20 -21 -32 -14 -25 8 6 21 9 30 6 14 -4 14 -3 1 6 -8 5 -11 14 -6 18 4 4 14
0 21 -10 9 -13 15 -15 20 -7 4 7 10 8 14 4 9 -13 68 -45 92 -49 18 -4 20 -1
15 23 -3 15 -3 21 0 14 5 -10 9 -10 21 0 10 8 5 -8 -11 -40 -14 -28 -32 -51
-39 -49 -6 1 -12 -7 -13 -18 -2 -30 -15 -65 -25 -65 -5 0 -9 -6 -9 -13 0 -7
-29 -69 -66 -137 -227 -433 -491 -1000 -510 -1100 l-7 -32 -34 39 c-18 21 -48
57 -65 80 -17 24 -33 41 -35 39 -4 -4 51 -102 90 -162 26 -38 27 -44 16 -93
-6 -29 -9 -93 -7 -144 2 -73 9 -103 29 -148 24 -51 30 -57 83 -77 59 -22 92
-27 120 -16 22 8 20 29 -6 83 -20 41 -23 61 -23 181 0 129 1 135 20 133 44 -6
88 10 153 54 91 62 89 58 53 88 -57 49 -37 69 85 86 75 10 80 12 118 56 73 82
72 81 32 98 -37 16 -96 20 -96 8 0 -5 -22 -31 -48 -59 -44 -46 -53 -51 -105
-57 -31 -4 -57 -4 -57 1 0 4 23 16 50 27 49 19 65 35 34 35 -8 0 -23 7 -32 16
-15 15 -15 16 4 10 14 -4 21 -2 21 8 0 10 -9 14 -26 12 -14 -2 -18 -1 -9 1 9
2 18 14 20 26 3 21 10 22 105 28 71 5 128 15 188 34 81 27 87 30 120 81 19 28
53 86 76 128 l41 76 -34 0 c-18 0 -46 7 -62 15 -16 9 -30 14 -30 13 -12 -26
-59 -109 -93 -165 -41 -66 -49 -74 -101 -93 -32 -12 -66 -19 -80 -15 -15 4
-21 2 -17 -5 3 -5 -2 -10 -12 -11 -10 0 -34 -2 -53 -4 -19 -2 -41 0 -47 4 -7
4 8 8 32 9 25 1 55 6 65 12 11 6 25 8 30 5 11 -7 45 24 86 79 24 34 26 39 9
31 -77 -32 -127 -45 -175 -44 -76 1 -74 1 -98 -21 -29 -28 -28 -46 6 -65 l27
-15 -30 3 c-24 3 -32 10 -42 38 -9 28 -12 31 -18 16 -4 -10 -3 -23 4 -30 16
-16 14 -25 -9 -37 -16 -9 -24 -6 -43 11 -12 12 -17 19 -11 16 14 -8 26 17 17
38 -3 10 -1 15 7 13 7 -2 15 3 18 11 2 8 0 11 -6 7 -5 -3 16 52 47 123 31 71
60 126 65 123 5 -3 6 -1 3 5 -4 6 18 59 48 118 30 59 55 100 55 91 0 -10 5
-14 10 -11 6 3 10 2 10 -4 0 -16 71 -55 79 -43 3 6 27 10 53 9 54 -2 39 -18
-21 -23 -91 -8 -130 -37 -97 -73 9 -10 29 -22 43 -26 18 -4 23 -10 18 -23 -5
-14 -4 -15 6 -4 16 15 33 16 23 0 -4 -7 -3 -8 5 -4 6 4 30 1 54 -8 40 -14 117
-28 117 -22 0 2 -18 15 -40 30 -75 50 -44 77 137 121 86 20 154 68 176 123 24
61 75 279 93 397 20 135 23 431 6 535 -7 41 -20 97 -28 124 -14 41 -22 51 -58
66 -74 32 -115 32 -174 2z m-157 -731 c-6 -5 -25 10 -25 20 0 5 6 4 14 -3 8
-7 12 -15 11 -17z m-9 -24 c8 3 33 -3 55 -13 35 -15 42 -16 50 -3 17 28 9 0
-13 -41 -34 -64 -120 -163 -183 -211 -31 -24 -73 -59 -93 -76 -21 -18 -41 -33
-45 -33 -5 0 -5 -5 -1 -12 4 -7 3 -8 -5 -4 -8 5 8 45 55 134 108 205 158 289
162 270 2 -10 9 -15 18 -11z m254 -107 l8 25 1 -26 c2 -41 -54 -227 -75 -251
-27 -30 -95 -78 -111 -78 -24 0 -14 20 32 68 53 55 90 128 114 223 12 53 17
63 20 41 l4 -27 7 25z m-448 -290 c-6 -15 -11 -19 -16 -12 -4 7 -1 18 6 26 17
19 20 14 10 -14z m31 -40 c3 -11 2 -20 -3 -20 -4 0 -10 9 -13 20 -3 11 -2 20
3 20 4 0 10 -9 13 -20z m-317 -568 c-4 -3 -11 0 -16 8 -15 24 -11 33 6 15 9
-9 13 -19 10 -23z m28 -10 c3 -5 -1 -9 -9 -9 -8 0 -12 4 -9 9 3 4 7 8 9 8 2 0
6 -4 9 -8z m63 -38 c-3 -3 -12 -4 -19 -1 -8 3 -5 6 6 6 11 1 17 -2 13 -5z
m-56 -211 c16 -10 29 -20 29 -23 0 -10 -132 -93 -168 -105 -45 -16 -72 -9 -72
19 0 18 6 21 38 21 33 1 46 8 88 52 27 29 51 52 52 52 2 1 17 -7 33 -16z"/>
<path d="M2030 3322 c0 -23 59 -192 84 -240 21 -41 44 -62 67 -62 35 0 33 43
-6 162 -34 107 -38 114 -73 130 -68 31 -72 32 -72 10z"/>
<path d="M2186 3243 c-6 -14 -5 -15 5 -6 7 7 10 15 7 18 -3 3 -9 -2 -12 -12z"/>
<path d="M1680 2764 c0 -14 83 -161 116 -206 44 -61 64 -63 64 -5 0 50 -56
165 -97 197 -24 18 -83 28 -83 14z"/>
<path d="M2230 2741 c0 -5 5 -13 10 -16 6 -3 10 -2 10 4 0 5 -4 13 -10 16 -5
3 -10 2 -10 -4z"/>
<path d="M2193 2715 c-3 -9 -3 -18 -1 -21 3 -3 8 4 11 16 6 23 -1 27 -10 5z"/>
<path d="M2222 2700 c0 -14 2 -19 5 -12 2 6 2 18 0 25 -3 6 -5 1 -5 -13z"/>
<path d="M2338 2713 c6 -2 18 -2 25 0 6 3 1 5 -13 5 -14 0 -19 -2 -12 -5z"/>
<path d="M2041 2384 c0 -11 3 -14 6 -6 3 7 2 16 -1 19 -3 4 -6 -2 -5 -13z"/>
<path d="M2021 2349 c-1 -9 7 -23 17 -30 15 -12 16 -12 6 1 -6 8 -14 22 -17
30 -5 13 -6 12 -6 -1z"/>
<path d="M1999 2273 c0 -5 -2 -16 -4 -25 -2 -10 2 -18 9 -18 9 0 12 9 8 25 -4
24 -11 33 -13 18z"/>
<path d="M1556 2177 c55 -63 132 -112 150 -94 3 3 -6 23 -20 46 -20 31 -35 43
-67 51 -23 6 -53 16 -66 21 l-25 9 28 -33z"/>
<path d="M3870 1962 c6 -13 14 -21 18 -18 3 4 -2 14 -12 24 -18 16 -18 16 -6
-6z"/>
<path d="M3959 1947 c8 -22 7 -23 -14 -19 -16 3 -25 -1 -28 -15 -4 -16 -5 -16
-6 0 0 9 -5 17 -11 17 -13 0 -13 -1 5 -43 23 -56 22 -139 -3 -178 -79 -123
-267 -253 -617 -427 -180 -90 -276 -132 -302 -132 -16 0 -16 -1 0 -17 16 -16
40 -18 200 -18 136 0 191 4 216 14 34 15 148 79 206 116 139 89 300 197 398
269 131 96 127 93 178 136 20 16 40 30 43 30 4 0 28 19 53 43 25 23 48 41 52
40 4 -1 6 17 6 39 0 22 3 42 7 44 5 3 8 11 8 17 -1 23 -23 -27 -26 -57 -1 -17
-7 -32 -13 -34 -7 -2 -26 -18 -42 -35 -30 -31 -30 -31 -23 -7 6 22 3 21 -22
-10 -15 -19 -29 -37 -31 -39 -2 -2 -5 -2 -8 0 -2 3 7 27 20 54 41 81 36 96
-42 134 -38 18 -79 39 -93 47 -14 8 -39 13 -57 11 -27 -2 -32 0 -30 17 1 12
-5 22 -16 24 -14 3 -16 0 -8 -21z"/>
<path d="M4369 1843 c-1 -5 -1 -16 0 -25 1 -10 -3 -18 -8 -18 -6 0 -11 -5 -11
-11 0 -8 4 -8 15 1 8 7 14 23 13 36 -2 23 -7 32 -9 17z"/>
<path d="M2325 949 c-4 -6 -5 -12 -2 -15 2 -3 7 2 10 11 7 17 1 20 -8 4z"/>
<path d="M2360 950 c-9 -6 -10 -10 -3 -10 6 0 15 5 18 10 8 12 4 12 -15 0z"/>
<path d="M3285 851 c-6 -6 -38 -24 -73 -41 -39 -19 -60 -35 -56 -42 5 -7 2 -9
-9 -5 -9 3 -49 -9 -90 -27 -79 -37 -397 -153 -487 -179 -84 -24 -202 -47 -335
-63 -138 -18 -371 -12 -463 12 -69 18 -79 11 -15 -10 197 -65 401 -80 638 -45
83 13 305 67 320 79 5 4 26 11 45 15 81 16 454 219 443 241 -7 10 -2 18 5 8 5
-8 22 1 52 27 25 21 43 39 40 39 -4 0 -10 -4 -15 -9z"/>
<path d="M4470 3435 c-15 -40 -12 -120 10 -225 30 -143 49 -202 62 -194 7 5 8
3 3 -5 -9 -15 24 -93 36 -85 5 3 6 -2 3 -10 -3 -9 -1 -16 6 -16 6 0 8 -5 4
-12 -5 -8 -2 -9 12 -4 10 4 15 4 11 0 -12 -12 24 -44 50 -44 13 0 26 6 29 14
8 20 -44 118 -58 110 -7 -4 -8 -3 -4 4 4 7 -9 51 -28 99 -42 106 -63 186 -80
302 -9 67 -16 87 -29 89 -11 2 -21 -6 -27 -23z m151 -508 c-10 -9 -11 -8 -5 6
3 10 9 15 12 12 3 -3 0 -11 -7 -18z"/>
<path d="M3978 3343 c-62 -15 -6 -194 132 -423 87 -146 140 -218 206 -284 66
-65 151 -111 186 -100 25 8 47 32 48 52 0 8 -55 71 -122 140 -136 140 -190
209 -275 345 -59 96 -123 223 -123 244 0 16 -30 31 -52 26z"/>
</g>
</svg>
